<?xml version="1.0" standalone="no"?>
<!DOCTYPE svg PUBLIC "-//W3C//DTD SVG 20010904//EN"
 "http://www.w3.org/TR/2001/REC-SVG-20010904/DTD/svg10.dtd">
<svg version="1.0" xmlns="http://www.w3.org/2000/svg"
 width="30.000000pt" height="30.000000pt" viewBox="0 0 30.000000 30.000000"
 preserveAspectRatio="xMidYMid meet">

<g transform="translate(0.000000,30.000000) scale(0.100000,-0.100000)"
fill="#000000" stroke="none">
<path d="M161 283 c-1 -20 -6 -23 -45 -23 -116 0 -149 -140 -54 -225 76 -70
198 -30 229 75 15 50 -1 92 -47 124 -19 13 -32 25 -29 28 3 3 -5 3 -19 1 -19
-4 -25 0 -29 18 -4 24 -4 24 -6 2z m-69 -59 c-12 -8 -27 -12 -32 -9 -17 10 -1
25 28 25 l26 0 -22 -16z"/>
</g>
</svg>
